<svg width="208" height="38" viewBox="0 0 208 38" fill="none" xmlns="http://www.w3.org/2000/svg">
<g clip-path="url(#clip0_6685_85038)">
<path fill-rule="evenodd" clip-rule="evenodd" d="M19.0767 24.3545H9.17624V33.8297H0V14.7617H19.0767V24.3545Z" fill="#F78312"/>
<path fill-rule="evenodd" clip-rule="evenodd" d="M47.8922 32.8986C47.731 31.4741 47.4625 30.104 47.4625 29.137V24.2209C47.4625 21.5351 45.6365 20.2993 43.0317 20.2993C41.1252 20.2993 39.326 20.6749 37.7953 21.2391L38.6278 23.2275C39.8094 22.6633 41.2594 22.1529 42.9512 22.1529C44.6698 22.1529 45.0458 23.2538 45.0458 24.5433V25.3229H43.9448C38.7083 25.3229 37.2852 27.1765 37.2852 29.6749C37.2852 32.0651 39.1112 33.2248 41.904 33.2248C43.3539 33.2248 44.5892 32.307 45.2337 31.5548C45.2606 31.6897 45.6634 32.7904 45.6634 32.8986H47.8922ZM45.0726 29.9166C44.5624 30.7488 43.5419 31.3673 42.2799 31.3673C40.8297 31.3673 39.8094 30.7757 39.8094 29.5667C39.8094 27.8213 40.9371 26.9885 44.3207 26.9885H45.0726V29.9166ZM51.1683 17.8816H53.7731V15.5176H51.1683V17.8816ZM53.6656 32.7374V20.6217H51.2757V32.9831C51.2757 34.5686 50.6581 35.2664 48.7738 35.6694L49.584 37.6842C52.0277 36.9056 53.6656 35.5357 53.6656 32.7374ZM74.9335 32.8986V25.0544C74.9335 21.7768 73.4834 20.272 70.637 20.272C68.8648 20.272 67.5758 21.3739 66.8776 22.5021C66.0451 21.0779 65.1589 20.272 63.0106 20.272C61.4532 20.272 60.191 21.6693 59.7077 22.3673L59.2511 20.6217H57.076C57.1566 21.5351 57.3715 22.4216 57.3715 23.4424V32.8986H59.7614V24.5706C60.1374 23.6567 61.2383 22.1529 62.6079 22.1529C64.1654 22.1529 64.8904 22.9589 64.8904 25.1074V32.8986H67.2803V24.7318C67.7369 23.4956 68.811 22.1529 70.3148 22.1529C72.0602 22.1529 72.5436 23.2813 72.5436 25.1074V32.8986H74.9335ZM88.9509 27.6863C88.9509 23.0394 87.7695 20.2993 83.4192 20.2993C79.1227 20.2993 77.968 24.0335 77.968 26.8804C77.968 30.2922 79.7135 33.2248 83.5535 33.2248C85.1647 33.2248 86.8295 32.9292 88.2797 32.2538L87.5009 30.3727C86.2119 31.0175 85.0035 31.4205 83.7683 31.4205C81.6469 31.4205 80.6802 29.9698 80.5191 27.6863H88.9509ZM86.6148 25.887H80.4922C80.6264 23.2006 81.996 22.1529 83.446 22.1529C85.4064 22.1529 86.5342 23.2538 86.6148 25.887ZM99.5315 20.8903C98.8599 20.4874 98.2149 20.272 97.2486 20.272C95.8524 20.272 94.7781 21.938 94.3485 22.7703L93.9188 20.6217H91.7437C91.8242 21.2391 92.0392 22.1529 92.0392 23.3618V32.8986H94.4291V25.1074C94.7513 24.3557 95.3152 22.1529 96.8185 22.1529C97.652 22.1529 98.2149 22.6091 98.6715 22.9051L99.5315 20.8903ZM111.696 32.8986C111.535 31.4741 111.267 30.104 111.267 29.137V24.2209C111.267 21.5351 109.44 20.2993 106.835 20.2993C104.929 20.2993 103.13 20.6749 101.598 21.2391L102.432 23.2275C103.613 22.6633 105.063 22.1529 106.755 22.1529C108.474 22.1529 108.85 23.2538 108.85 24.5433V25.3229H107.748C102.512 25.3229 101.089 27.1765 101.089 29.6749C101.089 32.0651 102.915 33.2248 105.708 33.2248C107.157 33.2248 108.393 32.307 109.037 31.5548C109.065 31.6897 109.467 32.7904 109.467 32.8986H111.696ZM108.876 29.9166C108.366 30.7488 107.346 31.3673 106.083 31.3673C104.634 31.3673 103.613 30.7757 103.613 29.5667C103.613 27.8213 104.74 26.9885 108.125 26.9885H108.876V29.9166Z" fill="#F78312"/>
<path fill-rule="evenodd" clip-rule="evenodd" d="M122.008 17.8336H124.586V15.475H122.008V17.8336ZM122.088 32.8164H124.505V20.5675H122.088V32.8164ZM138.201 32.8164V25.0971C138.201 22.2829 137.289 20.2185 133.852 20.2185C132.024 20.2185 130.978 21.72 130.495 22.2829L130.064 20.5675H127.889C127.969 21.4788 128.184 22.1483 128.184 23.1674V32.8164H130.574V24.5343C131.085 23.4085 132.078 22.0952 133.502 22.0952C135.598 22.0952 135.811 23.5154 135.811 25.0704V32.8164H138.201ZM148.326 16.7347L147.709 14.7246C145.56 14.8853 142.23 16.2786 142.23 19.7361V20.5675H140.378V22.4169H142.23V32.8164H144.62V22.4169H147.414V20.5675H144.62V19.5489C144.62 17.9141 145.828 17.0022 148.326 16.7347ZM161.002 26.6249C161.002 23.087 159.552 20.2185 155.283 20.2185C151.039 20.2185 149.534 23.2477 149.534 26.6249C149.534 30.1629 151.011 33.1687 155.283 33.1687C159.525 33.1687 161.002 30.1629 161.002 26.6249ZM158.532 26.6249C158.532 29.6001 157.619 31.2886 155.283 31.2886C152.865 31.2886 152.006 29.4656 152.006 26.6249C152.006 23.623 153.025 22.0952 155.283 22.0952C157.673 22.0952 158.532 23.623 158.532 26.6249ZM170.267 32.8247C168.253 32.4182 166.964 31.5119 166.964 29.8497V22.4436H169.811V20.5675H166.964V17.3513H164.547V20.5675H162.559V22.4436H164.547V29.7966C164.547 32.5254 166.615 34.2945 169.435 34.9913L170.267 32.8247ZM182.782 27.616C182.782 22.9797 181.601 20.246 177.249 20.246C172.954 20.246 171.799 23.9715 171.799 26.812C171.799 30.2159 173.545 33.1419 177.385 33.1419C178.995 33.1419 180.661 32.8471 182.111 32.1731L181.333 30.2963C180.043 30.9396 178.835 31.3417 177.598 31.3417C175.478 31.3417 174.51 29.8943 174.35 27.616H182.782ZM180.446 25.8209H174.323C174.457 23.1406 175.826 22.0952 177.277 22.0952C179.238 22.0952 180.366 23.1936 180.446 25.8209ZM195.19 32.3066L194.357 30.3237C193.309 30.8592 191.86 31.2886 191.027 31.2886C188.771 31.2886 187.723 29.6531 187.723 26.7857C187.723 23.6499 188.664 22.0952 191.054 22.0952C191.967 22.0952 193.363 22.6044 194.277 23.0602L195.109 21.0767C194.223 20.7283 192.181 20.246 191.08 20.246C187.053 20.246 185.252 22.8189 185.252 26.7857C185.252 30.5376 187.106 33.1419 191.001 33.1419C191.941 33.1419 194.25 32.7621 195.19 32.3066ZM208 32.8164V25.0168C208 22.3634 207.114 20.2185 203.677 20.2185C201.958 20.2185 200.829 21.5593 200.373 22.2829V15.2069H197.983V32.8164H200.373V24.5343C200.856 23.4623 201.823 22.0952 203.3 22.0952C205.341 22.0952 205.61 23.4622 205.61 25.1233V32.8164H208Z" fill="#666666"/>
<path fill-rule="evenodd" clip-rule="evenodd" d="M26.1044 7.05859H26.7353V33.9213H22.1573V11.635H9.52344V7.05859H26.1044Z" fill="#F78312"/>
<path fill-rule="evenodd" clip-rule="evenodd" d="M22.2559 4.57644H26.8344V0H22.2559V4.57644Z" fill="#F78312"/>
</g>
<defs>
<clipPath id="clip0_6685_85038">
<rect width="208" height="38" fill="white"/>
</clipPath>
</defs>
</svg>
